<svg id="Calque_1" data-name="Calque 1" xmlns="http://www.w3.org/2000/svg" viewBox="0 0 109 109"><title>blessures-cumulees</title><path d="M26.28,105.35l-.91-.36a5.55,5.55,0,0,1-3.9-5.06c-.16-3.14-.08-6.3-.06-9.45a1.41,1.41,0,0,1,1.47-1.54,1.46,1.46,0,0,1,1.49,1.64c0,2.62,0,5.24,0,7.87,0,.36,0,.73,0,1.09a3,3,0,0,0,5.94.06c0-.4,0-.8,0-1.2v-31c0-2,.37-2.31,2.33-2.31,1.53,0,3.06,0,4.59,0s2.06.46,2.06,2.09c0,3,0,5.91,0,8.86q0,11.31,0,22.61a5.79,5.79,0,0,0,.19,1.67,3,3,0,0,0,5.72-.48,6.51,6.51,0,0,0,.07-1.09V59.13H44c-2.76,0-5.52,0-8.28,0a5.22,5.22,0,1,1-.06-10.43c1.19,0,2.38,0,3.64,0V32.23h-16A6,6,0,0,0,16.9,38.6q0,13.4,0,26.8a2.4,2.4,0,0,0,1.4,2.51,2.19,2.19,0,0,0,3-1.57A8,8,0,0,0,21.38,65q0-12.95,0-25.9c0-1.63.45-2.32,1.52-2.3s1.47.69,1.47,2.35V83.52a5.53,5.53,0,0,1-.09,1.29,1.33,1.33,0,0,1-1.47,1.08,1.3,1.3,0,0,1-1.35-1.1,5.17,5.17,0,0,1-.08-1.18q0-5.88,0-11.76v-.94a18.56,18.56,0,0,1-3.51,0,4.94,4.94,0,0,1-4-4.86c0-9.4-.07-18.8,0-28.19a8.78,8.78,0,0,1,8.61-8.54q12.33-.12,24.65,0a8.81,8.81,0,0,1,8.6,8.54c.09,4.25.08,8.5,0,12.75a8.78,8.78,0,0,1-6.48,8.17c-.8.22-1,.57-1,1.36,0,12.88,0,25.76,0,38.64a6.18,6.18,0,0,1-2.92,5.74,16.72,16.72,0,0,1-2,.87h-2.2c-4-1.69-4.89-3-4.89-7.49V68.16h-3V69.5q0,14.43,0,28.85a14,14,0,0,1,0,1.59,5.83,5.83,0,0,1-3.93,5l-.91.36ZM42.43,32.26V56.11c1.74,0,3.4.12,5,0a5.86,5.86,0,0,0,5.33-5.73q.07-6.18,0-12.34a5.86,5.86,0,0,0-5.33-5.73C45.83,32.15,44.17,32.26,42.43,32.26ZM39.31,51.7c-1.38,0-2.67-.05-4,0a2.09,2.09,0,0,0-2,2.11,2.13,2.13,0,0,0,1.84,2.25c1.34.11,2.7,0,4.08,0Z"/><path d="M72.5,27c-.11-.35-.22-.66-.31-1a4.44,4.44,0,0,1,1.9-5,4.34,4.34,0,0,1,5.35.44q3.42,3.27,6.71,6.69a4.26,4.26,0,0,1,0,6q-3.26,3.43-6.7,6.69a4.14,4.14,0,0,1-4.73.79A4.32,4.32,0,0,1,72,37.61c0-.2,0-.4,0-.73a4.8,4.8,0,0,0-.7.38A8.44,8.44,0,0,0,68,45.59c.52,3.35-1.46,5.89-4.57,5.77a4.42,4.42,0,0,1-4.17-3.51A17.65,17.65,0,0,1,71.52,27.26ZM61.72,44.17c.15,1,.25,2.11.47,3.14a1.31,1.31,0,0,0,1.67,1,1.35,1.35,0,0,0,1.19-1.48A5.27,5.27,0,0,0,65,46a10.94,10.94,0,0,1,1-6.87,11.43,11.43,0,0,1,9.19-6.48,1.53,1.53,0,0,1,1.77.79,1.5,1.5,0,0,1-.43,1.88c-.31.31-.62.61-.92.92a1.51,1.51,0,1,0,2.12,2.1q3-3,6-6a1.53,1.53,0,0,0,0-2.5c-.81-.83-1.64-1.64-2.47-2.46-1.2-1.2-2.38-2.41-3.6-3.58a1.46,1.46,0,0,0-2.14-.1,1.48,1.48,0,0,0,0,2.2,8.11,8.11,0,0,0,.78.77A1.71,1.71,0,0,1,77,28.6c-.29.81-1,1-1.78,1A14.78,14.78,0,0,0,61.72,44.17Z"/><path d="M80.75,61.57a12.73,12.73,0,0,1,0,3.15A4.37,4.37,0,0,1,73.6,67c-2.37-2.18-4.63-4.48-6.84-6.82a4.24,4.24,0,0,1,0-5.89q3.27-3.42,6.71-6.68a4.13,4.13,0,0,1,4.73-.78,4.31,4.31,0,0,1,2.72,4c0,.19,0,.39,0,.74a7.57,7.57,0,0,0,.79-.49A8.42,8.42,0,0,0,85,42.76,4.62,4.62,0,0,1,86.65,38a4.32,4.32,0,0,1,4.61-.54,4.12,4.12,0,0,1,2.48,3.05,17.32,17.32,0,0,1-2.23,13,1.52,1.52,0,0,1-2.19.71A1.51,1.51,0,0,1,89,51.91a14.73,14.73,0,0,0,2-10.22c-.14-.89-.45-1.62-1.49-1.68A1.44,1.44,0,0,0,88,41.87a12.94,12.94,0,0,1-.19,5.33,11.69,11.69,0,0,1-9.56,8.5,3.23,3.23,0,0,1-1.64-.16,1.39,1.39,0,0,1-.34-2.21c.39-.46.85-.84,1.25-1.29a1.47,1.47,0,0,0,.07-2.14,1.45,1.45,0,0,0-2.14,0Q72.25,53,69.13,56.18a1.41,1.41,0,0,0,0,2.2q3.07,3.12,6.21,6.2a1.49,1.49,0,1,0,2.11-2.09c-.31-.34-.76-.61-1-1s-.6-1.23-.43-1.68a2.25,2.25,0,0,1,1.41-1c1.43-.41,2.93-.57,4.34-1a16.33,16.33,0,0,0,3-1.55c1-.62,1.83-.59,2.37.18a1.53,1.53,0,0,1-.74,2.32C84.54,59.76,82.56,60.67,80.75,61.57Z"/><path d="M23.4,14.85A11.47,11.47,0,1,1,34.94,26.26,11.47,11.47,0,0,1,23.4,14.85Zm19.93.08a8.47,8.47,0,1,0-8.73,8.33A8.47,8.47,0,0,0,43.33,14.93Z"/></svg>