<svg id="Calque_1" data-name="Calque 1" xmlns="http://www.w3.org/2000/svg" viewBox="0 0 109 109"><defs><style>.cls-1{fill:#fff;}</style></defs><title>cote-de-depreciation</title><path d="M35.11,105.32a16.27,16.27,0,0,1-2.18-.94,5.54,5.54,0,0,1-2.8-4.86c-.05-3,0-5.91,0-8.87,0-1.1.57-1.73,1.48-1.73s1.5.64,1.51,1.72c0,2.79,0,5.58,0,8.36a3,3,0,1,0,6,0V67.73c0-2.39.24-2.64,2.59-2.64h4.39c1.48,0,2,.5,2,2v9.64a49.81,49.81,0,0,1,4.85-2.29c.88-.31,1.16-.59,1.16-1.52,0-10.82,0-21.64,0-32.45,0-2.9.34-5.63,2.34-8.14-.52,0-.86-.06-1.2-.06H31.83a6,6,0,0,0-6.22,5.92,30.66,30.66,0,0,0,0,3.18,1.14,1.14,0,0,0,.5.8c.65.39,1.39.63,2,1S29.35,44,30,44.47a7.4,7.4,0,0,0,.07-.76c0-1.79,0-3.59,0-5.38a1.43,1.43,0,0,1,1.41-1.59A1.49,1.49,0,0,1,33.1,38.3c0,.27,0,.53,0,.8V83.51c0,.23,0,.46,0,.69,0,1.06-.65,1.71-1.57,1.67s-1.41-.64-1.42-1.69c0-4.11,0-8.23,0-12.35v-1a16.22,16.22,0,0,1-3,.2,5.17,5.17,0,0,1-4.52-5.24c0-1,0-2.11,0-3.24a10.68,10.68,0,0,1-8.29-4.23,10,10,0,0,1-2.08-6.8c.34-5.52,4.37-9.42,10.37-9.95,0-1,0-2,0-3,0-3.53,1.45-6.36,4.59-8.05a9.67,9.67,0,0,1,4.25-1.17c8.08-.11,16.16-.06,24.24-.05a2,2,0,0,1,.69,0c1.86.76,3.52.11,5.3-.45a10.42,10.42,0,1,1,4,20.37l-1.21.16v1.18c0,5,0,10.09,0,15.13A5.19,5.19,0,0,1,58.89,71a16.93,16.93,0,0,1-1.84-.36c0,1,0,2,0,3,0,.21.45.5.73.57a10.46,10.46,0,0,1,.4,20.32l-1.16.28V98c0,4.3-1,5.79-5,7.33h-2c-4-1.14-5.07-3.94-5-7.19.1-9.62,0-19.23,0-28.85V68.13h-3v1.21q0,14.84,0,29.65a6,6,0,0,1-4.63,6.16,1.87,1.87,0,0,0-.35.17Zm13-20.83A7.48,7.48,0,1,0,55.51,77,7.51,7.51,0,0,0,48.07,84.49Zm9-45.61a7.48,7.48,0,1,0,7.43-7.49A7.43,7.43,0,0,0,57.05,38.88ZM30.14,52.05A7.48,7.48,0,0,0,15.19,52a7.48,7.48,0,0,0,15,.06Zm26.94-5.53c0-.07,0,0,0,0,0,6.46,0,12.93,0,19.4a2.21,2.21,0,0,0,4.42-.09c0-5.47,0-10.94,0-16.41a1,1,0,0,0-.36-.7C59.8,48,58.44,47.26,57.08,46.52Zm-9,45.71c0,2.31,0,4.76,0,7.21a3,3,0,0,0,2.76,2.88A2.89,2.89,0,0,0,54,99.85c.15-1.66,0-3.35,0-4.67Zm-18-32.48c-1.4.75-2.74,1.45-4.06,2.18a.85.85,0,0,0-.42.57,32.89,32.89,0,0,0,0,3.58,2.22,2.22,0,0,0,4.42-.15C30.14,63.85,30.1,61.76,30.1,59.75Z"/><path d="M81.6,105.32l-.73-.3a4.47,4.47,0,0,1,1.49-8.65c1.49,0,3,0,4.54,0V89.81H85.84c-2.13,0-4.26,0-6.38,0a4.47,4.47,0,0,1,0-8.94c2.45,0,4.91,0,7.44,0V74.29c-1.51,0-3,0-4.54,0a4.4,4.4,0,0,1-4.14-3,4.49,4.49,0,0,1,4.33-5.91c1.43,0,2.85,0,4.35,0V58.83h-1.8c-2,0-4.07.05-6.09-.08a4.44,4.44,0,0,1,.21-8.85c2.19-.09,4.39,0,6.58,0h1.1c0-.28.07-.44.07-.6V43.33c-.9,0-1.75,0-2.6,0a20,20,0,0,1-2.68-.12,4.44,4.44,0,0,1,.54-8.82c1.53,0,3,0,4.66,0V27.87c-.32,0-.67-.05-1-.05H79.67A4.48,4.48,0,0,1,75,23.3a4.43,4.43,0,0,1,4.63-4.43c2.39,0,4.78,0,7.25,0V12.31c-.44,0-.92,0-1.4,0a26.09,26.09,0,0,1-4.26-.23A4.3,4.3,0,0,1,78,7.22a4.4,4.4,0,0,1,4.09-3.84c3.22-.08,6.45-.08,9.67,0a4.34,4.34,0,0,1,4.14,4.33c.07,4.15,0,8.3,0,12.45a1.54,1.54,0,0,1-1.47,1.68c-.88,0-1.5-.66-1.5-1.73,0-3.88,0-7.77,0-11.65,0-1.66-.47-2.12-2.14-2.12h-8c-1.18,0-1.84.54-1.84,1.48s.65,1.49,1.82,1.5H88.1c1.28,0,1.84.53,1.85,1.8q0,4.42,0,8.86c0,1.32-.56,1.85-1.91,1.85-2.82,0-5.65,0-8.48,0A1.44,1.44,0,0,0,78,23.3a1.49,1.49,0,0,0,1.5,1.53c.24,0,.47,0,.7,0h7.69c1.61,0,2.07.46,2.08,2.07q0,4.23,0,8.46c0,1.45-.52,2-2,2H82.77c-1.15,0-1.76.51-1.78,1.43s.61,1.53,1.78,1.55c1.8,0,3.59,0,5.39,0,1.24,0,1.78.53,1.79,1.75,0,3,0,6,0,9,0,1.24-.57,1.77-1.88,1.79-2.53,0-5.06,0-7.58,0-.3,0-.6,0-.9,0-1,0-1.57.56-1.6,1.42s.54,1.47,1.58,1.54c.6,0,1.2,0,1.8,0,2.26,0,4.52,0,6.78,0,1.24,0,1.79.53,1.8,1.74q0,4.48,0,9c0,1.22-.55,1.75-1.78,1.76-1.82,0-3.65,0-5.48,0-1.1,0-1.72.61-1.7,1.53s.61,1.4,1.67,1.44H88c1.47,0,2,.52,2,2,0,2.86,0,5.71,0,8.57,0,1.48-.49,2-2,2H80.11c-1.45,0-2.13.49-2.12,1.51s.68,1.47,2.16,1.47h7.78c1.52,0,2,.51,2,2q0,4.24,0,8.47c0,1.52-.5,2-2,2H82.72c-1.09,0-1.73.58-1.73,1.48s.64,1.49,1.73,1.5q4.23,0,8.48,0A1.56,1.56,0,0,0,93,100.62c0-.33,0-.66,0-1V27.33c0-.36,0-.73,0-1.09a1.36,1.36,0,0,1,1.31-1.38A1.39,1.39,0,0,1,95.88,26a5.16,5.16,0,0,1,.06,1.18q0,36.2,0,72.4c0,2.78-.88,4.75-3.59,5.7Z"/><path d="M43.57,3.35A11.45,11.45,0,1,1,32.11,14.82,11.51,11.51,0,0,1,43.57,3.35ZM35.1,14.83a8.48,8.48,0,1,0,8.46-8.49A8.48,8.48,0,0,0,35.1,14.83Z"/><path class="cls-1" d="M51.06,84.45A4.49,4.49,0,1,0,55.58,80,4.45,4.45,0,0,0,51.06,84.45Z"/><path class="cls-1" d="M57.08,46.52c1.36.74,2.72,1.46,4.06,2.23a1,1,0,0,1,.36.7c0,5.47,0,10.94,0,16.41a2.21,2.21,0,0,1-4.42.09c0-6.47,0-12.94,0-19.4C57.06,46.5,57.12,46.45,57.08,46.52Z"/><path d="M51.06,84.45a4.49,4.49,0,0,1,9,0,4.49,4.49,0,1,1-9,0ZM55.59,83a1.47,1.47,0,0,0-1.53,1.38A1.51,1.51,0,0,0,55.5,86,1.55,1.55,0,0,0,57,84.45,1.5,1.5,0,0,0,55.59,83Z"/><path d="M64.52,34.37A4.49,4.49,0,0,1,69,38.86a4.49,4.49,0,0,1-9,0A4.45,4.45,0,0,1,64.52,34.37Zm1.5,4.5a1.49,1.49,0,0,0-1.41-1.5A1.46,1.46,0,0,0,63,38.8a1.5,1.5,0,0,0,1.4,1.52A1.54,1.54,0,0,0,66,38.87Z"/><path d="M27.15,52.1a4.5,4.5,0,0,1-4.47,4.41,4.48,4.48,0,1,1,.05-9A4.44,4.44,0,0,1,27.15,52.1Zm-3,0a1.46,1.46,0,0,0-1.38-1.52A1.5,1.5,0,0,0,21.18,52a1.54,1.54,0,0,0,1.5,1.54A1.49,1.49,0,0,0,24.15,52.07Z"/></svg>