<svg id="Calque_1" data-name="Calque 1" xmlns="http://www.w3.org/2000/svg" viewBox="0 0 109 109"><title>crampes-musculaires</title><path d="M17.92,105.35A18.58,18.58,0,0,1,15.07,104a6.46,6.46,0,0,1-2.41-7.16,6.39,6.39,0,0,1,5.94-4.67,32.87,32.87,0,0,0,13-2.79c8.61-3.85,13.14-10.71,13.88-20,.25-3.23.06-6.5.08-9.76a4.88,4.88,0,0,1,.09-1.08,1.36,1.36,0,0,1,1.53-1.14,1.38,1.38,0,0,1,1.36,1.34v.1c-.07,4.21.29,8.48-.3,12.62-1.55,10.85-7.67,18.18-18.16,21.7a36.44,36.44,0,0,1-11.15,2,3.55,3.55,0,0,0-3.54,3.58A3.62,3.62,0,0,0,19,102.35c6.32,0,12.65.05,19,0a13.48,13.48,0,0,0,3.88-.84,27.14,27.14,0,0,1,17.71.11,15.41,15.41,0,0,0,4.68.73A6.55,6.55,0,0,0,71,95.8a39.62,39.62,0,0,0-2.32-16.13c-2-5.09-1.45-10.22.27-15.29C71,58.26,73.16,52.16,75.08,46a101.56,101.56,0,0,0,4.51-26c0-1.24.63-1.93,1.57-1.88s1.47.77,1.42,2a107,107,0,0,1-5.07,28.21C75.64,54.24,73.58,60.09,71.59,66a19.7,19.7,0,0,0,.33,14.1,31,31,0,0,1,2,11.79,28.43,28.43,0,0,1-.26,5.85c-.85,4-3.47,6.52-7.52,7.47a3.58,3.58,0,0,0-.55.19H61.45c-1.23-.38-2.46-.74-3.69-1.13a20.38,20.38,0,0,0-9.81-1c-3,.54-5.91,1.42-8.86,2.15Z"/><path d="M62.07,48.88c-3.87-1.2-6-4.09-7.37-7.54a31.1,31.1,0,0,1,.4-24.77c1.3-2.94,3.26-5.4,6.51-6.51a1.08,1.08,0,0,0,.44-.83c0-1.36,0-2.72,0-4.08,0-1.14.62-1.83,1.55-1.8s1.43.7,1.44,1.8c0,1.36,0,2.72,0,4.08,0,.29.22.75.45.82,2.88,1,4.69,3.07,6.07,5.61,2.65,4.91,3.36,10.22,3.08,15.71A25.88,25.88,0,0,1,71,44.13a10.51,10.51,0,0,1-5.45,4.61,1,1,0,0,0-.47.78c0,1.33,0,2.66,0,4s-.54,1.92-1.51,1.9-1.48-.7-1.48-2C62.06,51.93,62.07,50.4,62.07,48.88Zm1.61-35c-2.53,6.61-2.26,26.22,0,31A75.77,75.77,0,0,0,63.68,13.88Zm3.38.71a88.59,88.59,0,0,1,0,29.6C73.3,38.05,73.25,20.62,67.06,14.59Zm-7,29.67a88,88,0,0,1,0-29.59C54.11,20.32,53.67,37.69,60.11,44.26Z"/><path d="M48.53,28.35q0,11.35,0,22.71c0,.36.11.82-.06,1.07a3,3,0,0,1-1.27,1.17,1.22,1.22,0,0,1-1.53-.94,4.23,4.23,0,0,1-.12-1.18q0-22.81,0-45.62a4.3,4.3,0,0,1,.09-1.08,1.38,1.38,0,0,1,1.56-1.11,1.35,1.35,0,0,1,1.31,1.27,8,8,0,0,1,0,1.1Q48.54,17,48.53,28.35Z"/><path d="M89.67,19.14a12.8,12.8,0,0,1-1.26,1.52,1.44,1.44,0,0,1-2.06,0,1.47,1.47,0,0,1,0-2.07c.74-.8,1.51-1.58,2.32-2.32a1.4,1.4,0,0,1,2.06,0,17.1,17.1,0,0,0,1.53,1.44,7.62,7.62,0,0,1,.85-1.34,1.49,1.49,0,1,1,2.08,2.11c-.61.66-1.25,1.29-1.9,1.91-1,1-1.67,1-2.64,0A13.86,13.86,0,0,1,89.67,19.14Z"/><path d="M39.47,41.48a16.56,16.56,0,0,1,1.35,1.19,1.41,1.41,0,0,1,0,2.13c-.72.78-1.48,1.53-2.26,2.25a1.45,1.45,0,0,1-2.14,0,1.51,1.51,0,0,1,0-2.07c.37-.42.77-.81,1.28-1.35a15.67,15.67,0,0,1-1.26-1.08,1.46,1.46,0,0,1,0-2.14c.72-.77,1.47-1.53,2.26-2.25a1.48,1.48,0,1,1,2.08,2.1A16.87,16.87,0,0,1,39.47,41.48Z"/><path d="M85.2,41.45a16.08,16.08,0,0,1-1.26-1.05,1.54,1.54,0,0,1-.13-2.29,1.51,1.51,0,0,1,2.22.17c.67.64,1.33,1.3,2,2a1.5,1.5,0,0,1,0,2.42c-.32.34-.7.62-1.37,1.2a11.34,11.34,0,0,1,1.44,1A1.48,1.48,0,1,1,86,47c-.71-.66-1.39-1.34-2.06-2a1.52,1.52,0,0,1,0-2.43C84.27,42.2,84.65,41.92,85.2,41.45Z"/><path d="M36.08,30.87c0,.62,0,1.12,0,1.61a1.46,1.46,0,0,1-1.53,1.6c-1.06,0-2.13,0-3.19,0a1.38,1.38,0,0,1-1.47-1.42,1.42,1.42,0,0,1,1.4-1.51,17.92,17.92,0,0,1,1.81,0c0-.63,0-1.15,0-1.67a1.44,1.44,0,0,1,1.47-1.55c1.07-.06,2.13-.05,3.2,0a1.49,1.49,0,1,1,0,3C37.23,30.89,36.73,30.87,36.08,30.87Z"/><path d="M91.56,31.11c.59,0,1,0,1.51,0,1.07.05,1.73.66,1.7,1.55s-.66,1.4-1.7,1.43c-.89,0-1.79,0-2.69,0-1.31,0-1.79-.51-1.8-1.82,0-.42,0-.84,0-1.4-.65,0-1.2,0-1.75,0a1.47,1.47,0,0,1-.14-2.93,25.41,25.41,0,0,1,3.49,0,1.45,1.45,0,0,1,1.39,1.54C91.59,30,91.56,30.45,91.56,31.11Z"/><path d="M38.68,19.11a18.8,18.8,0,0,1-1.2,1.48,1.44,1.44,0,0,1-2.21,0c-.75-.7-1.47-1.43-2.17-2.17A1.49,1.49,0,0,1,33,16.28a1.51,1.51,0,0,1,2.14,0,17.56,17.56,0,0,1,1.26,1.48,12.81,12.81,0,0,1,1.09-1.42,1.46,1.46,0,0,1,2.2-.08c.78.72,1.54,1.47,2.25,2.25a1.43,1.43,0,0,1,0,2.13,1.46,1.46,0,0,1-2.13-.09A16.33,16.33,0,0,1,38.68,19.11Z"/><path d="M82.62,12.3a1.67,1.67,0,0,1-1.52,1.8c-.84,0-1.44-.58-1.53-1.6-.24-2.47-.46-4.94-.68-7.41a1.52,1.52,0,0,1,1.28-1.73A1.45,1.45,0,0,1,81.83,4.7C82.12,7.23,82.36,9.76,82.62,12.3Z"/></svg>