<svg id="Calque_1" data-name="Calque 1" xmlns="http://www.w3.org/2000/svg" viewBox="0 0 109 109"><title>creme-solaire</title><path d="M40.83,105.37a1.2,1.2,0,0,0-.24-.15c-4-1.06-6-3.68-6-7.79,0-4.94,0-9.89,0-14.83a1.88,1.88,0,0,0-1-2,3.81,3.81,0,0,1-1.9-3c-.53-4.44-1-8.89-1.57-13.34-.12-1.08-.28-2.17-.38-3.26s.41-1.79,1.31-1.87,1.55.49,1.67,1.57q.91,7.91,1.82,15.81c.18,1.55.61,2,2.17,2H71.36c1.55,0,2-.42,2.19-1.94q.9-7.86,1.81-15.72c.13-1.17.72-1.76,1.67-1.67s1.44.8,1.31,2c-.55,4.81-1.12,9.62-1.68,14.43-.09.72-.17,1.45-.28,2.17a4,4,0,0,1-2.14,3.07,1.33,1.33,0,0,0-.78,1.41c0,4.64-.11,9.29.05,13.93.14,4.25-1.16,7.81-6.33,9.24ZM70.42,81.55H37.6V96.33h8.92V92.57c0-1.69.45-2.14,2.11-2.14H59.4c1.62,0,2.08.45,2.09,2.06,0,1.28,0,2.56,0,3.87h8.93Zm-.24,17.91H37.91a4.17,4.17,0,0,0,3.93,2.9q12.15.06,24.31,0A4.28,4.28,0,0,0,70.18,99.46Zm-11.75-6H49.57v2.92H58.5c0-.87,0-1.59,0-2.32C58.49,93.9,58.45,93.71,58.43,93.49Z"/><path d="M54.06,3.37H83.3c1.69,0,2.14.44,2.14,2.11,0,2.88.14,5.78-.07,8.66a27.35,27.35,0,0,1-1.22,5.6,96.1,96.1,0,0,0-3,16.82q-1,9-2,17.9c-.13,1.16-.79,1.78-1.68,1.69s-1.42-.8-1.29-2q.94-8.4,1.92-16.81A9,9,0,0,1,78.22,36a2.73,2.73,0,0,0-1.14-3.14,35.51,35.51,0,0,0-46.8.61,1.7,1.7,0,0,0-.61,1.64q1.08,9,2.12,18.09a13,13,0,0,1,.12,1.39,1.44,1.44,0,0,1-1.33,1.57A1.37,1.37,0,0,1,29,54.94c-.22-1.34-.36-2.7-.52-4C27.69,44,27,37.17,26,30.34c-.6-4.08-1.79-8.07-2.65-12.12a32.44,32.44,0,0,1-.78-5c-.13-2.55,0-5.11,0-7.67,0-1.8.41-2.2,2.25-2.2ZM29.32,30c16.43-11.83,33-11.83,49.37,0,1.13-4.78,2.29-9.72,3.46-14.67H25.87ZM25.6,12.26H82.38V6.45H25.6Z"/><path d="M68.47,41.68A14.46,14.46,0,1,1,54,27.28,14.48,14.48,0,0,1,68.47,41.68ZM43.16,45.09a14.56,14.56,0,0,1,21.73,0c1.68-4.26-.18-9.78-4.2-12.69a11.46,11.46,0,0,0-14,.45C42.35,36.48,41.88,42.09,43.16,45.09Zm10.27,8.09A12,12,0,0,0,63,48.88a.91.91,0,0,0,0-1.36,11.54,11.54,0,0,0-17.91,0,.93.93,0,0,0,0,1.43A11.34,11.34,0,0,0,53.43,53.18Z"/></svg>