<svg id="Calque_1" data-name="Calque 1" xmlns="http://www.w3.org/2000/svg" viewBox="0 0 109 109"><title>diagnostic</title><path d="M3,7.84a1.29,1.29,0,0,0,.19-.32,5.54,5.54,0,0,1,5.7-4H68.05c4.1,0,6.28,2.15,6.28,6.22V26.1a11.36,11.36,0,0,1,1.8-.1c2.64.23,5.28.46,7.9.8,1.22.16,1.73,1,1.49,1.91s-1,1.28-2.16,1a24.51,24.51,0,0,0-13.45.41C59.29,33.46,52,43.81,52.7,54.62A24.66,24.66,0,1,0,102,52.19C101.46,44,97.59,37.53,90.74,32.9c-.28-.18-.57-.34-.84-.53a1.48,1.48,0,0,1-.61-2.12,1.45,1.45,0,0,1,2.17-.4,43.16,43.16,0,0,1,4.17,3,27.11,27.11,0,0,1,9.19,17.65,5.25,5.25,0,0,0,.18.65V56c-.23,1.23-.39,2.47-.69,3.68A27.36,27.36,0,0,1,87.55,79.2c-.68.28-1,.58-.93,1.35.07,1,0,2,0,3.07a3.71,3.71,0,0,1-2.17,3.7c-.68.33-.69,3.67,0,4a3.75,3.75,0,0,1,2.18,3.79c0,2.68,0,5.36,0,8a2.34,2.34,0,0,1-1,2.12h-1a2,2,0,0,1-1.05-2c0-2.71,0-5.43,0-8.14,0-.85-.26-1.19-1.14-1.18-3.22,0-6.43,0-9.65,0-.84,0-1.17.26-1.16,1.15.05,2.68,0,5.36,0,8a2.16,2.16,0,0,1-1,2.09h-1a2,2,0,0,1-1-2.09c.06-1,0-2,0-3V97.13H8.88a5.54,5.54,0,0,1-5.69-4.06A1.29,1.29,0,0,0,3,92.75V45.22c.46-.72,1-1.24,2-.92s1,1.08,1,1.94Q6,68.56,6,90.87c0,2.42.86,3.27,3.29,3.27H68.7A3.89,3.89,0,0,1,71,91.25c.48-.2.48-3.66,0-3.86-1.92-.84-2.4-2.39-2.31-4.3,0-1.06.34-2.34-.13-3.11s-1.77-.88-2.7-1.3a27.47,27.47,0,0,1-16.1-27,30.07,30.07,0,0,1,.83-5.08c.41-1.66,1.07-3.26,1.65-5a8,8,0,0,1-3.9-12.46,19.24,19.24,0,0,0-2.3,0,3.3,3.3,0,0,0-2.8,3.46c0,2.82,0,5.63,0,8.45V42c0,1.11-.57,1.72-1.5,1.71S40.3,43,40.29,41.92c0-1.56,0-3.11,0-4.67,0-1.23,0-2.45,0-3.68a7,7,0,0,1,2.26-6c-2-1.75-2.33-4-2.27-6.45s0-5.17,0-7.75a1.65,1.65,0,0,1,1-1.78c1.05-.41,2,.33,2,1.59,0,2.79.12,5.58,0,8.35-.17,3.36,1.61,5,5.06,4.5-.09-.18-.15-.36-.24-.52A7.55,7.55,0,0,1,48,17a7.79,7.79,0,0,1,7.93-3.69,12.73,12.73,0,0,1,11.72,13v1.31c1.2-.33,2.3-.62,3.39-1,.15-.05.3-.41.3-.63,0-5.73,0-11.46,0-17.19A2.43,2.43,0,0,0,69,6.47c-.3,0-.6,0-.9,0H9.32C6.83,6.45,6,7.3,6,9.79V37.42c0,.24,0,.47,0,.7,0,.84-.06,1.61-1,2s-1.48-.21-2-.83ZM64.64,27a10,10,0,0,0-9.52-10.77,5,5,0,0,0-4.88,2.81,4.76,4.76,0,0,0,.8,5.44,2,2,0,0,1,.47,2.09,3.63,3.63,0,0,0,0,1.85,2.35,2.35,0,0,1-.56,2.44A4.89,4.89,0,0,0,53,38.64a1,1,0,0,0,1.45-.46,25,25,0,0,1,8.4-8C64.28,29.31,65.12,28.45,64.64,27Zm7.09,53.57c0,1.17,0,2.23,0,3.28,0,.26.44.71.67.71q5.22.08,10.45,0c.25,0,.71-.36.72-.58.07-1.14,0-2.29,0-3.54A28.08,28.08,0,0,1,71.73,80.58Zm2.69,7v3.32H81V87.62Z"/><path d="M29,26.12h1.66a3.36,3.36,0,0,0,3.45-3.48c0-3.11,0-6.22,0-9.34a2.19,2.19,0,0,1,.68-1.51A1.41,1.41,0,0,1,37,13c0,3.44.06,6.89,0,10.33a6,6,0,0,1-2.18,4.26,7.11,7.11,0,0,1,2.25,5.87c-.07,2.81,0,5.63,0,8.44,0,1.18-.68,1.85-1.67,1.74-.82-.08-1.3-.68-1.31-1.69,0-2.82-.12-5.64,0-8.45.16-3.1-1.53-4.9-4.87-4.35a21.83,21.83,0,0,1,1.24,3.68,7.91,7.91,0,0,1-8.12,9.09A12.73,12.73,0,0,1,9.76,29.69a27.54,27.54,0,0,1,.42-6.8A12.55,12.55,0,0,1,22,13.26a7.83,7.83,0,0,1,7.49,4,7.53,7.53,0,0,1-.2,8.19C29.23,25.63,29.14,25.8,29,26.12ZM22.23,38.93a5,5,0,0,0,4.87-2.8,4.67,4.67,0,0,0-.81-5.44,2.05,2.05,0,0,1-.46-2.09,4.4,4.4,0,0,0,0-2,2.06,2.06,0,0,1,.49-2.08,4.61,4.61,0,0,0,.81-5.35,4.83,4.83,0,0,0-4.72-2.89A9.66,9.66,0,0,0,13,23.91a25,25,0,0,0-.25,5.54A9.71,9.71,0,0,0,22.23,38.93Z"/><path d="M34.38,82.65H24.33c-1.08,0-1.75-.59-1.75-1.47s.68-1.46,1.75-1.5c.26,0,.53,0,.79,0H42.94c.5,0,1,0,1.49,0,1.15,0,1.82.61,1.8,1.54s-.67,1.43-1.79,1.43Z"/><path d="M34.41,48.77h9.46c.29,0,.59,0,.89,0a1.48,1.48,0,0,1,0,2.95c-1,.06-1.92,0-2.88,0h-17a6.76,6.76,0,0,1-.9,0,1.53,1.53,0,0,1-1.42-1.51,1.46,1.46,0,0,1,1.48-1.43c.86,0,1.73,0,2.59,0Z"/><path d="M34.48,64.23c3.22,0,6.44,0,9.66,0,.39,0,.91-.06,1.15.15a2.28,2.28,0,0,1,.87,1.38c0,.46-.54,1-1,1.31-.26.21-.76.13-1.16.13H24.23a1.55,1.55,0,0,1-1.65-1.49,1.5,1.5,0,0,1,1.65-1.47c3.42,0,6.84,0,10.25,0Z"/><path d="M14.32,58.16c-3.59.29-4.87-1.23-4.61-4.57,0-.62,0-1.26,0-1.88a3,3,0,0,1,2.94-2.92c1.15,0,2.32,0,3.48,0a3,3,0,0,1,3,3c0,1.06,0,2.12,0,3.18a3.11,3.11,0,0,1-3.22,3.18Zm-1.57-3h3.33v-3.3H12.75Z"/><path d="M14.4,64.24c.6,0,1.2,0,1.79,0a3.05,3.05,0,0,1,2.93,3c0,1.09,0,2.19,0,3.28a3.08,3.08,0,0,1-2.95,3,33.86,33.86,0,0,1-3.49,0,3,3,0,0,1-2.95-3c0-1.06,0-2.12,0-3.18a3.06,3.06,0,0,1,3.19-3.19c.5,0,1,0,1.49,0Zm-1.64,6.33h3.33v-3.3H12.76Z"/><path d="M9.72,84.37c-.32-3.9,1.47-4.94,4.63-4.7.6,0,1.2,0,1.79,0a3.1,3.1,0,0,1,3,3.12c0,1,0,2.06,0,3.08a3.1,3.1,0,0,1-3,3.2,27.23,27.23,0,0,1-3.38,0,3.07,3.07,0,0,1-3-3.17C9.7,85.39,9.72,84.86,9.72,84.37Zm3.06-1.66v3.34h3.29V82.71Z"/><path d="M30.59,58.16H24.43c-1.16,0-1.85-.55-1.85-1.47s.69-1.5,1.83-1.5H36.73c1.15,0,1.85.58,1.86,1.48s-.68,1.49-1.84,1.49Z"/><path d="M30.53,73.64c-2,0-4,0-6.06,0-1.16,0-1.86-.56-1.89-1.46s.67-1.52,1.9-1.52H36.7c1.19,0,1.85.52,1.88,1.44s-.69,1.53-1.89,1.54C34.63,73.65,32.58,73.64,30.53,73.64Z"/><path d="M30.59,86.14c2.06,0,4.12,0,6.18,0,1.16,0,1.84.58,1.81,1.5s-.69,1.46-1.78,1.47q-6.22,0-12.45,0c-1.08,0-1.76-.62-1.77-1.49s.68-1.48,1.84-1.48C26.48,86.13,28.53,86.14,30.59,86.14Z"/><path d="M55.14,53.55A22.14,22.14,0,1,1,81,75.28a21.54,21.54,0,0,1-15-2.86,2.12,2.12,0,0,1-.91-1.48,1.58,1.58,0,0,1,.9-1.22,2.28,2.28,0,0,1,1.65.28,20.67,20.67,0,0,0,8,2.53,19.06,19.06,0,1,0-13.42-7.34,1.64,1.64,0,0,1,.38,1.91,1.5,1.5,0,0,1-2.62.06,21.07,21.07,0,0,1-4.17-8.8C55.49,56.78,55.36,55.15,55.14,53.55Z"/><path d="M74.66,52.69l7.24-7.24a5.09,5.09,0,0,1,7.63,6.74C85.79,56.13,81.91,59.94,78,63.7a4.83,4.83,0,0,1-6.62-.08q-3.15-3-6.13-6.11a5.09,5.09,0,0,1,7.19-7.19C73.22,51,73.89,51.86,74.66,52.69Zm-7.73,1.79a5.83,5.83,0,0,0,.79,1.3c1.75,1.81,3.54,3.58,5.34,5.34a2.14,2.14,0,0,0,3.39,0q5.25-5.22,10.48-10.47a3.17,3.17,0,0,0,.73-1.15,2,2,0,0,0-1-2.39,2.12,2.12,0,0,0-2.71.48c-2.61,2.59-5.2,5.19-7.81,7.79-1.11,1.11-1.75,1.11-2.86,0s-1.91-1.93-2.9-2.85a1.94,1.94,0,0,0-2.31-.32A2.21,2.21,0,0,0,66.93,54.48Z"/></svg>