<svg id="Calque_1" data-name="Calque 1" xmlns="http://www.w3.org/2000/svg" viewBox="0 0 250 70">
    <defs>
        <style>.cls-1{fill:#fff;}.cls-2{fill:red;}</style>
    </defs>
    <title>efficientbicon</title>
    <path class="cls-1"
        d="M36.18,44.73H12.38c.1,3.64,1.09,6.43,3,8.41s4.52,3,7.9,3a16.8,16.8,0,0,0,10.48-3.66v5.39Q29.26,61,21.85,61T10.33,56.33q-4.12-4.68-4.13-13a18.62,18.62,0,0,1,4.53-12.88A14.52,14.52,0,0,1,22,25.4q6.67,0,10.42,4.29c2.5,2.85,3.76,6.86,3.76,12Zm-6-4.82c0-3.08-.75-5.45-2.19-7.13a7.49,7.49,0,0,0-6.05-2.53,8.47,8.47,0,0,0-6.23,2.68,12.4,12.4,0,0,0-3.3,7Z" />
    <path class="cls-1"
        d="M61.63,15A7.75,7.75,0,0,0,58,14.11q-5.67,0-5.66,7V26.2h8v5h-8v29h-6v-29H40.54v-5h5.81V20.85q0-5.48,3.15-8.6a10.94,10.94,0,0,1,8-3.12,11.83,11.83,0,0,1,4.12.59Z" />
    <path class="cls-1"
        d="M83.46,15a7.75,7.75,0,0,0-3.65-.89q-5.67,0-5.66,7V26.2h8v5h-8v29h-6v-29H62.37v-5h5.81V20.85q0-5.48,3.15-8.6a10.94,10.94,0,0,1,8-3.12,11.83,11.83,0,0,1,4.12.59Z" />
    <path class="cls-1"
        d="M87.12,14.21a3.72,3.72,0,0,1,3.78-3.79,3.83,3.83,0,0,1,2.76,1.08,3.63,3.63,0,0,1,1.12,2.71,3.51,3.51,0,0,1-1.12,2.65,3.86,3.86,0,0,1-2.76,1.06,3.67,3.67,0,0,1-2.7-1.06A3.55,3.55,0,0,1,87.12,14.21Zm.71,46v-34h6v34Z" />
    <path class="cls-1"
        d="M128.11,58.66A18,18,0,0,1,118.7,61q-7.38,0-11.87-4.73T102.34,44q0-8.37,4.84-13.49t13-5.11a17.7,17.7,0,0,1,8,1.66v6a13.22,13.22,0,0,0-8-2.64A10.83,10.83,0,0,0,111.73,34q-3.24,3.59-3.24,9.54t3.06,9.2A10.68,10.68,0,0,0,119.8,56a13.71,13.71,0,0,0,8.31-2.89Z" />
    <path class="cls-1"
        d="M135.46,14.21a3.71,3.71,0,0,1,3.78-3.79A3.83,3.83,0,0,1,142,11.5a3.59,3.59,0,0,1,1.12,2.71A3.48,3.48,0,0,1,142,16.86a3.85,3.85,0,0,1-2.75,1.06,3.69,3.69,0,0,1-2.71-1.06A3.54,3.54,0,0,1,135.46,14.21Zm.7,46v-34h6v34Z" />
    <path class="cls-1"
        d="M180.65,44.73h-23.8c.11,3.64,1.1,6.43,3,8.41s4.52,3,7.9,3a16.82,16.82,0,0,0,10.48-3.66v5.39Q173.74,61,166.32,61t-11.51-4.67q-4.14-4.68-4.14-13a18.58,18.58,0,0,1,4.54-12.88,14.5,14.5,0,0,1,11.27-5.07q6.68,0,10.42,4.29c2.5,2.85,3.75,6.86,3.75,12Zm-6-4.82c0-3.08-.75-5.45-2.19-7.13a7.49,7.49,0,0,0-6.05-2.53,8.46,8.46,0,0,0-6.23,2.68,12.47,12.47,0,0,0-3.31,7Z" />
    <path class="cls-1"
        d="M217.42,60.2h-6V40.86q0-10.49-7.66-10.48a8.22,8.22,0,0,0-6.52,2.95,11,11,0,0,0-2.55,7.47V60.2h-6v-34h6v5.62h.12A12.27,12.27,0,0,1,206,25.4q5.6,0,8.52,3.58t2.92,10.44Z" />
    <path class="cls-1"
        d="M243.8,59.86a11.08,11.08,0,0,1-5.32,1.08q-9.12,0-9.13-10.12V31.18h-5.84v-5h5.84V18l6-1.91V26.2h8.45v5h-8.45V49.75c0,2.23.38,3.83,1.14,4.79A4.5,4.5,0,0,0,240.27,56a5.67,5.67,0,0,0,3.53-1.14Z" />
    <circle class="cls-2" cx="23.14" cy="16.41" r="7.41" />
</svg>