<svg id="Calque_1" data-name="Calque 1" xmlns="http://www.w3.org/2000/svg" viewBox="0 0 109 109"><title>organique</title><path d="M3,69.43c.33-1.75.58-3.52,1-5.25A29.09,29.09,0,0,1,9.7,53,3.72,3.72,0,0,1,13,51.31c.53-.79.85-1.7,1.49-2.1A5.49,5.49,0,0,1,17,48.66a12.37,12.37,0,0,1,10.18,3.8s.12,0,.24,0V46H25.76A12,12,0,0,1,13.34,33.62c0-.67,0-1.33,0-2A2.51,2.51,0,0,1,15.77,29c4.27-.34,8.21.41,11.32,3.66a4.74,4.74,0,0,0,.39.29c0-1.42.05-2.72,0-4,0-.32-.4-.66-.68-.92a14.3,14.3,0,0,1-4.28-6.12,11.85,11.85,0,0,1,2.62-12c.67-.74,1.38-1.43,2.12-2.1a2.45,2.45,0,0,1,3.28-.17C34,10.49,36.32,14,36.06,18.71a11.14,11.14,0,0,1-3.68,8,4.81,4.81,0,0,0-1.91,4.73,9.55,9.55,0,0,1,0,1.43,5.35,5.35,0,0,0,.59-.46,12.15,12.15,0,0,1,8.64-3.47,24.63,24.63,0,0,1,2.58.06,2.4,2.4,0,0,1,2.27,2.15c.36,4.1-.22,8-3.22,11.08a11.86,11.86,0,0,1-9,3.81H30.54v6.4c.08,0,.17,0,.2,0,3.11-3.22,7-4.07,11.3-3.75a2.46,2.46,0,0,1,2.51,2.13c.32,3.5,0,6.9-2.16,9.86a12,12,0,0,1-10,5.1l-1.6,0a1.17,1.17,0,0,0-.24.06,2.61,2.61,0,0,0,.72,2.72c5.09,5,10.11,10,15.16,15.09.26.26.48.55.72.82l.28-.07V83.31c0-10.93,0-21.87,0-32.8A14,14,0,0,1,52.7,39.1c1.12-.93,2.19-1.92,3.29-2.88,1.92-1.68,2.21-2.43,1.91-5.13-.3,0-.63,0-.94-.05a4.44,4.44,0,0,1-4.11-4.36c-.06-3.25-.07-6.5,0-9.74a4.39,4.39,0,0,1,4.49-4.38c7.67,0,15.34,0,23,0,1.12,0,1.74.53,1.76,1.45s-.62,1.53-1.79,1.53H58.11c-1.89,0-2.29.4-2.3,2.25,0,2.78,0,5.57,0,8.35,0,1.41.52,1.94,1.91,1.94H94.78c1.34,0,1.86-.53,1.86-1.87q0-4.43,0-8.85c0-1.29-.52-1.81-1.81-1.81H88.06c-1.22,0-1.94-.59-1.91-1.53s.69-1.44,1.88-1.45c2.32,0,4.65,0,7,0a4.43,4.43,0,0,1,4.63,4.63c0,3,0,6,0,9S98,30.88,95,31.06l-.4.06A4.76,4.76,0,0,0,96.24,36c1.43,1.12,2.75,2.39,4.12,3.6a13.32,13.32,0,0,1,4.47,8.09,2.07,2.07,0,0,0,.17.45V95.68c-1.26,4.36-4.3,5.45-7.9,5.42q-21-.15-41.92,0c-3.09,0-5.52-.86-7-3.62a1.38,1.38,0,0,0-.25,0l-.44.23A29.8,29.8,0,0,1,4,79.44C3.57,77.72,3.33,76,3,74.2ZM102,85H79.64c-2.78,0-4.11-1.32-4.11-4.07V58.4c0-2.77,1.32-4.09,4.08-4.09q10.61,0,21.21,0H102V50a10.51,10.51,0,0,0-3.66-8.16c-1.47-1.3-2.93-2.6-4.41-3.87a6.75,6.75,0,0,1-2.44-5.33c0-.49,0-1,0-1.48H61c0,.34,0,.61,0,.87a7.11,7.11,0,0,1-2.86,6.33c-1.11.89-2.09,1.95-3.23,2.81-4.45,3.37-4.78,8.08-4.31,13.16h1.08c2.43,0,4.85,0,7.27,0a3.38,3.38,0,0,1,3.51,3.33c.07,1.62,0,3.24,0,4.87a1.48,1.48,0,1,1-2.95,0c-.05-.82,0-1.65,0-2.48,0-2.77,0-2.77-2.77-2.77H50.51V82c.4,0,.75.05,1.11.05H58c1.47,0,1.48,0,1.48-1.48V70.62c0-.26,0-.53,0-.79.05-1.09.62-1.76,1.49-1.76s1.48.67,1.49,1.75c0,3.87,0,7.75,0,11.62A3.4,3.4,0,0,1,58.77,85c-2.39,0-4.78,0-7.17,0-.36,0-.71,0-1.15,0V94c0,2.75,1.34,4.08,4.1,4.08H98.66a3.34,3.34,0,0,0,3.3-3C102.06,91.75,102,88.45,102,85Zm0-27.74H79.85c-1.33,0-1.33,0-1.33,1.32v22c0,1.38,0,1.38,1.38,1.38h21c.35,0,.7,0,1.06-.05ZM12.59,54.37c.05,0,0,0-.07,0a7.56,7.56,0,0,0-.6.67A26.18,26.18,0,0,0,6.81,78.35c4.22,17.42,24.78,25.77,40,16.31a1.22,1.22,0,0,0,.67-1.19c0-1.32,0-2.65,0-4A5.19,5.19,0,0,0,47,88.13L45.82,89a21.64,21.64,0,0,1-31.38-5.84c-.59-1-.46-1.87.33-2.34s1.55-.2,2.18.72c.52.75,1.06,1.5,1.46,2.07L28.68,73.41H14.29c.06.57.1,1.06.18,1.54.17,1.12-.27,1.91-1.19,2s-1.54-.4-1.74-1.48a20.69,20.69,0,0,1,.34-9A21.51,21.51,0,0,1,16.23,58Zm29-2.64c-6.85-1-12,4.17-11,10.93C36.89,63.63,42.42,59.09,41.57,51.73ZM29,10.31c-5.53,4.26-5.53,11.12,0,15.54C34.49,21.51,34.5,14.71,29,10.31ZM27.41,43c.89-7.24-4.66-11.93-11-10.91C15.52,38.91,20.5,43.88,27.41,43ZM41.54,32.05C34.7,31,29.49,36.34,30.61,43,37.46,43.84,42.56,38.74,41.54,32.05ZM31.21,90.32V75.94L21,86.15A18.31,18.31,0,0,0,31.21,90.32ZM18.39,60.09A18.31,18.31,0,0,0,14.3,70.28H28.61ZM34.32,90.33a18.17,18.17,0,0,0,10.08-4L34.28,76.24c0,4.34,0,8.9,0,13.47C34.29,89.87,34.3,90,34.32,90.33ZM27.43,62.68c.81-7.34-4.61-11.87-11-10.94a2.71,2.71,0,0,0,.84,2.8Q21,58.13,24.63,61.9A2.65,2.65,0,0,0,27.43,62.68Z"/><path d="M89.06,64.57v3.62h3.31c1.13,0,1.73.55,1.74,1.47s-.63,1.48-1.73,1.51-2.17,0-3.32,0v3.61c1.19,0,2.37,0,3.55,0s1.93.53,1.92,1.49-.71,1.48-2,1.49c-1.59,0-3.18,0-4.78,0C86.56,77.74,86,77.21,86,76q0-6.31,0-12.62c0-1.26.49-1.75,1.75-1.77,1.69,0,3.38,0,5.08,0,1.05,0,1.65.57,1.67,1.44s-.6,1.5-1.7,1.52S90.37,64.57,89.06,64.57Z"/></svg>