<svg id="Calque_1" data-name="Calque 1" xmlns="http://www.w3.org/2000/svg" viewBox="0 0 109 109"><defs><style>.cls-1{fill:#fff;}</style></defs><title>rein</title><path d="M3,43.25c.26-1.16.46-2.33.78-3.46a20.57,20.57,0,0,1,20.44-15,15.67,15.67,0,0,1,15.09,17c0,.39-.06.78-.1,1.2a4.73,4.73,0,0,0,3.63-4.79c0-6,0-12,0-18,0-.27,0-.53,0-.8a1.51,1.51,0,0,1,1.5-1.53,1.48,1.48,0,0,1,1.47,1.56c0,1.82,0,3.64,0,5.47,0,4.37,0,8.74,0,13.12A7.87,7.87,0,0,1,39,46.13a1.38,1.38,0,0,0-1.15.89c-.4.85-.91,1.66-1.43,2.59A11.46,11.46,0,0,0,49.28,37.92q0-16.05,0-32.11a4.89,4.89,0,0,1,.12-1.27,1.34,1.34,0,0,1,1.5-1,1.39,1.39,0,0,1,1.34,1.25,5.3,5.3,0,0,1,0,.8q0,16.24,0,32.5A14.22,14.22,0,0,1,40,52.48a36.82,36.82,0,0,1-4.12.23v3.42c6.19-.42,11.16,1.81,14.52,7.23,2.12-3.54,5.65-2.81,7.11,0,3.39-5.38,8.31-7.71,14.57-7.23v-3.4c-1.53-.11-3-.1-4.48-.34A14.05,14.05,0,0,1,55.79,38.89c-.11-11.23,0-22.46,0-33.7a1.49,1.49,0,0,1,1.41-1.7,1.51,1.51,0,0,1,1.56,1.68c0,2.22,0,4.44,0,6.66,0,8.71,0,17.43,0,26.14a11.26,11.26,0,0,0,9.58,11.54,27.7,27.7,0,0,0,3.27.19c-.63-1.19-1.16-2.24-1.76-3.25-.09-.17-.44-.22-.69-.27-4.41-.81-7-3.85-7-8.31V5.66a5.27,5.27,0,0,1,0-.89A1.41,1.41,0,0,1,63.62,3.5a1.4,1.4,0,0,1,1.49,1.2,5,5,0,0,1,0,1.09q0,16.16,0,32.3a4.69,4.69,0,0,0,3.43,4.84,39,39,0,0,1,.32-5.4,15.74,15.74,0,0,1,17-12.72,20.56,20.56,0,0,1,18.85,17.1c.08.45.19.89.28,1.34V51.4c-.5.66-1,1.23-2,.88s-1-1.11-1-2c0-1.53,0-3,0-4.58,0-9.47-6.36-16.67-15.78-17.9a12.8,12.8,0,0,0-14.61,11.8,12,12,0,0,0,2.45,8.13A7.24,7.24,0,0,1,74.7,47c1-.92,2-1.89,3.15-2.72a1.44,1.44,0,0,1,2.16.39,1.47,1.47,0,0,1-.53,2.07c-.16.12-.34.21-.5.33a8.8,8.8,0,0,0,0,14.58c.2.13.4.24.59.38a1.46,1.46,0,0,1,.47,2,1.4,1.4,0,0,1-2.07.45c-1.16-.86-2.21-1.87-3.3-2.83a8.73,8.73,0,0,1-.6-.68c-.26.39-.48.68-.66,1A12.62,12.62,0,0,0,83.83,81a17.45,17.45,0,0,0,17.74-14,61.47,61.47,0,0,0,.43-8.61c0-.84.1-1.61,1-2s1.49.23,2,.88v8.16c-.1.44-.2.88-.28,1.33A20.6,20.6,0,0,1,85.87,84a15.7,15.7,0,0,1-17.17-17c0-.37,0-.75.07-1.16a4.81,4.81,0,0,0-3.61,4.59c0,1.59,0,3.19,0,4.77a4.22,4.22,0,0,0,.5,1.85c2.56,4.33,5.16,8.64,7.76,12.94a3.65,3.65,0,0,1-3.24,5.75h-5c0,2.59,0,5.06,0,7.54a2.15,2.15,0,0,1-1,2.09h-1a2.11,2.11,0,0,1-1-2.08c.05-2,0-4,0-6V95.74H58.73c0,2.5,0,4.9,0,7.31a2.36,2.36,0,0,1-1,2.23h-1a1.9,1.9,0,0,1-1.06-2c.05-1.72,0-3.44,0-5.16,0-2.56,0-2.53-2.53-2.53-.73,0-1,.19-1,.94,0,2.25,0,4.5,0,6.75a1.92,1.92,0,0,1-1.06,2h-1a2.3,2.3,0,0,1-1-2.23c.05-.89,0-1.78,0-2.67V95.72H45.83c0,2.53,0,5,0,7.48a2.13,2.13,0,0,1-1,2.08h-1a2.13,2.13,0,0,1-1-2.09c.05-2.47,0-5,0-7.54-1.71,0-3.34.1-4.94,0a5.67,5.67,0,0,1-2.74-.89c-1.51-1.09-1.69-3-.65-4.73,2.62-4.37,5.26-8.73,7.87-13.11a2.47,2.47,0,0,0,.44-1.17c0-1.85.07-3.71,0-5.56a4.59,4.59,0,0,0-3.6-4.33c0,.37.05.73.08,1.09A15.64,15.64,0,0,1,23.82,84a20.58,20.58,0,0,1-20-15c-.32-1.14-.52-2.31-.78-3.46V57.36c.5-.66,1-1.22,2-.88s1,1.11,1,2c0,.36,0,.73,0,1.09a51.26,51.26,0,0,0,.32,7c1.4,7.84,7.42,13.31,15.47,14.35A12.73,12.73,0,0,0,36.26,66.63,11.18,11.18,0,0,0,33.91,61a6,6,0,0,1-.63.76c-1.06.93-2.09,1.92-3.23,2.75A1.41,1.41,0,0,1,28,64.05a1.45,1.45,0,0,1,.49-2c.18-.14.38-.25.58-.38a8.81,8.81,0,0,0-.27-14.75c-1-.66-1.27-1.44-.79-2.23s1.43-.94,2.43-.24a21.57,21.57,0,0,1,2.22,1.83A17.23,17.23,0,0,1,34,47.79c2.7-4.08,3.3-8.29,1.26-12.63a12.21,12.21,0,0,0-11-7.37A17.29,17.29,0,0,0,6.43,41.72,60,60,0,0,0,6,50.33c0,.84-.09,1.61-1,2s-1.49-.22-2-.88ZM53.9,92.67c5.27,0,10.55,0,15.83,0A6.05,6.05,0,0,0,71,92.35a5,5,0,0,0-.36-1.25Q62.82,78,55,65c-.82-1.37-1.08-1.37-1.9,0Q45.19,78,37.35,91.1A5,5,0,0,0,37,92.35a6.72,6.72,0,0,0,1.29.31C43.47,92.68,48.69,92.67,53.9,92.67ZM62.07,71c.68-5.35,2.3-7.18,7.31-8.42.16,0,.37-.08.43-.19.59-1,1.14-2.11,1.72-3.2a11.42,11.42,0,0,0-11.79,6.65,1.75,1.75,0,0,0,0,1.33C60.46,68.41,61.23,69.6,62.07,71ZM36.44,59.19c.52.92,1,1.73,1.42,2.59a1.37,1.37,0,0,0,1.17.85,7.74,7.74,0,0,1,6.49,5.69A22.31,22.31,0,0,1,46,70.94c.8-1.32,1.58-2.54,2.26-3.81a1.64,1.64,0,0,0,.07-1.25A11.42,11.42,0,0,0,36.44,59.19Z"/><path d="M45.83,8.65c0,1.19,0,2.38,0,3.57a1.5,1.5,0,1,1-3,0q0-3.51,0-7a1.5,1.5,0,1,1,3,0C45.85,6.34,45.83,7.49,45.83,8.65Z"/><path class="cls-1" d="M62.07,71c-.84-1.38-1.61-2.57-2.28-3.83a1.75,1.75,0,0,1,0-1.33,11.42,11.42,0,0,1,11.79-6.65c-.58,1.09-1.13,2.15-1.72,3.2-.06.11-.27.15-.43.19C64.37,63.8,62.75,65.63,62.07,71Z"/><path class="cls-1" d="M36.44,59.19a11.42,11.42,0,0,1,11.85,6.69,1.64,1.64,0,0,1-.07,1.25c-.68,1.27-1.46,2.49-2.26,3.81a22.31,22.31,0,0,0-.44-2.62A7.74,7.74,0,0,0,39,62.63a1.37,1.37,0,0,1-1.17-.85C37.47,60.92,37,60.11,36.44,59.19Z"/><path d="M52.51,77.13c0-1.46,0-2.91,0-4.37,0-1.12.56-1.72,1.49-1.72s1.48.59,1.49,1.72q0,4.36,0,8.73a1.49,1.49,0,1,1-3,0C52.49,80,52.51,78.58,52.51,77.13Z"/><path d="M55.47,87.71a1.47,1.47,0,0,1-2.94,0,1.47,1.47,0,1,1,2.94,0Z"/></svg>