<svg id="Calque_1" data-name="Calque 1" xmlns="http://www.w3.org/2000/svg" viewBox="0 0 109 109"><title>soins-continus</title><path d="M3,69.06c.16-.64.31-1.27.49-1.9a13.44,13.44,0,0,1,12.89-9.83c1.9,0,3.79,0,5.68,0,1.16,0,1.85.56,1.85,1.48s-.69,1.47-1.84,1.5a66.62,66.62,0,0,0-7.35.21A10.14,10.14,0,0,0,6,70.4Q5.9,79.7,6,89A10.39,10.39,0,0,0,16.1,99.07c1.13,0,2.26,0,3.39,0q35.81,0,71.62,0c5.27,0,9.42-3.13,10.59-8a12.07,12.07,0,0,0,.3-2.75q0-8.6,0-17.2A10.44,10.44,0,0,0,91.2,60.31q-31,0-62,0c-1.6,0-2.34-.48-2.33-1.51s.73-1.48,2.36-1.48c20.48,0,41,.09,61.45,0,8-.05,13.41,5.62,14.13,11.53,0,.09.1.16.15.25V90.33a3.86,3.86,0,0,0-.19.54,13.4,13.4,0,0,1-13.18,11.19q-37.63,0-75.26,0A13.42,13.42,0,0,1,3.49,92.23C3.31,91.6,3.16,91,3,90.33Z"/><path d="M54,96.1c-4.91,0-9.82,0-14.74,0a6,6,0,0,1-6.38-6.33q0-10.09,0-20.19a6,6,0,0,1,6.31-6.29H68.79a6,6,0,0,1,6.32,6.28q0,10.14,0,20.29a6,6,0,0,1-6.26,6.24C63.9,96.11,59,96.1,54,96.1Zm-.08-3H68.75a3.05,3.05,0,0,0,3.38-3.39V69.66a3,3,0,0,0-3.37-3.39H39.3c-2.26,0-3.43,1.18-3.43,3.44v20c0,2.26,1.17,3.43,3.42,3.44Z"/><path d="M50,13.28c-1.12-3.25.14-5.91,3-6.56a4.14,4.14,0,0,1,4,1.09c2.22,2.14,4.42,4.31,6.55,6.53a4.37,4.37,0,0,1-.1,6.26c-1.94,2-4,3.93-5.9,5.92-1.48,1.52-3.2,2.17-5.22,1.36a4.41,4.41,0,0,1-2.81-4.7,4.91,4.91,0,0,0-.7.38,8.56,8.56,0,0,0-3.34,8.6,4.49,4.49,0,1,1-8.83,1.51A17.54,17.54,0,0,1,49.31,13.52ZM39.37,30.7c0,.4.05,1,.1,1.59,0,.3.1.59.15.88.22,1.08.86,1.61,1.75,1.47s1.36-.93,1.17-2a12,12,0,0,1,.5-6.07c1.49-4.19,5.7-7.44,9.84-7.61.74,0,1.44.16,1.59.87a3,3,0,0,1-.38,1.71c-.18.4-.63.66-1,1A1.54,1.54,0,0,0,53,24.78a1.49,1.49,0,0,0,2.28-.17q3-2.94,5.92-5.9a1.56,1.56,0,0,0,0-2.57C60.08,15,59,13.93,57.86,12.83c-.89-.89-1.77-1.8-2.68-2.67A1.49,1.49,0,0,0,53,10a1.52,1.52,0,0,0,.08,2.22c.22.24.46.47.7.7.54.52,1,1.06.75,1.9s-1,1-1.83,1.09A14.63,14.63,0,0,0,39.37,30.7Z"/><path d="M58.29,47.84a13.43,13.43,0,0,1,0,3.29,4.38,4.38,0,0,1-7.18,2.08c-2.34-2.15-4.57-4.43-6.76-6.74a4.28,4.28,0,0,1,.08-6Q47.6,37.18,50.94,34a4.16,4.16,0,0,1,4.79-.86,4.4,4.4,0,0,1,2.73,4.66,4.41,4.41,0,0,0,.7-.38,8.57,8.57,0,0,0,3.34-8.61,4.49,4.49,0,1,1,8.84-1.47,17.51,17.51,0,0,1-2.29,12.32c-.61,1-1.42,1.29-2.22.82s-.94-1.33-.34-2.34A14.57,14.57,0,0,0,68.36,27.7a1.5,1.5,0,0,0-1.81-1.38,1.55,1.55,0,0,0-1.12,1.93,11.61,11.61,0,0,1-9.32,13.66l-.48.08c-.82.1-1.64.16-2.09-.73s0-1.57.68-2.17a7.19,7.19,0,0,0,.91-.92,1.42,1.42,0,0,0-.09-2,1.32,1.32,0,0,0-2-.1q-3.32,3.22-6.55,6.54a1.31,1.31,0,0,0,0,1.9q3.16,3.24,6.4,6.4a1.41,1.41,0,0,0,2.06,0,1.5,1.5,0,0,0,0-2.14,8,8,0,0,1-1-1.07c-.26-.48-.6-1.2-.42-1.57A2.57,2.57,0,0,1,55,45.06c1.82-.57,3.7-1,5.51-1.55a9.83,9.83,0,0,0,2-1.15,1.5,1.5,0,0,1,2.19.34,1.42,1.42,0,0,1-.56,2.13C62.2,45.91,60.18,46.88,58.29,47.84Z"/><path d="M22.4,63.29a1.49,1.49,0,1,1-1.46,1.46A1.51,1.51,0,0,1,22.4,63.29Z"/><path d="M28.35,66.26a1.48,1.48,0,1,1,1.54-1.48A1.49,1.49,0,0,1,28.35,66.26Z"/><path d="M79.59,63.29a1.49,1.49,0,1,1-1.48,1.45A1.53,1.53,0,0,1,79.59,63.29Z"/><path d="M85.55,66.27a1.52,1.52,0,0,1-1.46-1.57,1.49,1.49,0,1,1,1.46,1.57Z"/><path d="M93,64.76a1.49,1.49,0,1,1-1.46-1.46A1.51,1.51,0,0,1,93,64.76Z"/><path d="M16.46,72.23a1.49,1.49,0,1,1,1.47-1.55A1.5,1.5,0,0,1,16.46,72.23Z"/><path d="M22.43,69.26a1.49,1.49,0,1,1,0,3,1.49,1.49,0,0,1,0-3Z"/><path d="M28.36,72.23a1.49,1.49,0,0,1-1.44-1.58,1.49,1.49,0,1,1,1.44,1.58Z"/><path d="M79.55,72.23a1.49,1.49,0,1,1,1.54-1.49A1.5,1.5,0,0,1,79.55,72.23Z"/><path d="M87.06,70.76a1.49,1.49,0,1,1-1.42-1.5A1.5,1.5,0,0,1,87.06,70.76Z"/><path d="M91.51,72.23A1.49,1.49,0,1,1,93,70.74,1.5,1.5,0,0,1,91.51,72.23Z"/><path d="M17.93,76.68a1.49,1.49,0,1,1-1.47-1.45A1.5,1.5,0,0,1,17.93,76.68Z"/><path d="M23.91,76.75a1.49,1.49,0,1,1-1.4-1.52A1.51,1.51,0,0,1,23.91,76.75Z"/><path d="M29.89,76.72a1.49,1.49,0,1,1-1.43-1.49A1.52,1.52,0,0,1,29.89,76.72Z"/><path d="M81.09,76.67a1.49,1.49,0,1,1-1.49-1.44A1.52,1.52,0,0,1,81.09,76.67Z"/><path d="M85.57,78.2a1.49,1.49,0,1,1,1.49-1.53A1.51,1.51,0,0,1,85.57,78.2Z"/><path d="M93,76.74a1.49,1.49,0,1,1-1.41-1.51A1.5,1.5,0,0,1,93,76.74Z"/><path d="M16.48,84.16a1.49,1.49,0,1,1,1.45-1.57A1.5,1.5,0,0,1,16.48,84.16Z"/><path d="M23.91,82.7a1.49,1.49,0,1,1-1.41-1.51A1.52,1.52,0,0,1,23.91,82.7Z"/><path d="M29.89,82.63a1.49,1.49,0,1,1-1.49-1.44A1.5,1.5,0,0,1,29.89,82.63Z"/><path d="M79.55,81.19a1.49,1.49,0,1,1-1.44,1.48A1.5,1.5,0,0,1,79.55,81.19Z"/><path d="M85.56,84.16a1.49,1.49,0,1,1,1.5-1.41A1.5,1.5,0,0,1,85.56,84.16Z"/><path d="M91.56,84.16a1.49,1.49,0,0,1-1.49-1.52,1.49,1.49,0,1,1,1.49,1.52Z"/><path d="M17.93,88.68a1.49,1.49,0,1,1-1.4-1.52A1.51,1.51,0,0,1,17.93,88.68Z"/><path d="M22.46,90.13a1.49,1.49,0,1,1,1.45-1.57A1.5,1.5,0,0,1,22.46,90.13Z"/><path d="M28.4,87.16a1.49,1.49,0,1,1-1.49,1.43A1.51,1.51,0,0,1,28.4,87.16Z"/><path d="M79.55,87.16a1.49,1.49,0,1,1-1.44,1.48A1.5,1.5,0,0,1,79.55,87.16Z"/><path d="M85.58,87.16a1.49,1.49,0,1,1-1.49,1.43A1.5,1.5,0,0,1,85.58,87.16Z"/><path d="M93,88.63a1.49,1.49,0,1,1-1.46-1.47A1.51,1.51,0,0,1,93,88.63Z"/><path d="M17.93,64.75a1.49,1.49,0,1,1-1.46-1.46A1.51,1.51,0,0,1,17.93,64.75Z"/><path d="M16.44,93.12A1.49,1.49,0,1,1,15,94.56,1.51,1.51,0,0,1,16.44,93.12Z"/><path d="M23.91,94.66a1.49,1.49,0,1,1-1.39-1.53A1.5,1.5,0,0,1,23.91,94.66Z"/><path d="M28.45,93.12a1.49,1.49,0,1,1-.1,3,1.49,1.49,0,0,1,.1-3Z"/><path d="M79.64,93.12a1.53,1.53,0,0,1,1.45,1.48,1.49,1.49,0,1,1-1.45-1.48Z"/><path d="M85.59,93.12a1.52,1.52,0,0,1,1.47,1.45,1.49,1.49,0,1,1-3,0A1.51,1.51,0,0,1,85.59,93.12Z"/><path d="M93,94.56a1.49,1.49,0,1,1-3,.09,1.49,1.49,0,0,1,3-.09Z"/></svg>