<svg id="Calque_1" data-name="Calque 1" xmlns="http://www.w3.org/2000/svg" viewBox="0 0 109 109"><title>traitement-medical</title><path d="M14.49,105.27c-.34-.12-.67-.25-1-.36a7.29,7.29,0,0,1-5.19-6.83c0-8.16,0-16.33,0-24.49,0-1.07.62-1.73,1.53-1.69s1.45.72,1.46,1.89V97.48a4.48,4.48,0,0,0,4.79,4.8c2.89,0,5.78,0,8.68,0H55.65c3.43,0,5.16-1.71,5.17-5.12V33.75a5.44,5.44,0,0,1,.09-1.28,1.47,1.47,0,0,1,2.87.21,8,8,0,0,1,0,1.1V97c0,4.46-1.79,6.86-6.08,8.15,0,0-.09.09-.14.13Z"/><path d="M8.27,38.71c0-9.09.1-18.19,0-27.28a7.87,7.87,0,0,1,8.17-8.16c13.23.11,26.47,0,39.7,0a7.47,7.47,0,0,1,7.59,6,8.35,8.35,0,0,1,.12,1.58q0,7.77,0,15.53v.3a1.49,1.49,0,1,1-3,0c0-1.26,0-2.52,0-3.78q0-5.82,0-11.65c0-3.28-1.75-5-5-5-13.1,0-26.2,0-39.3,0a4.92,4.92,0,0,0-5.26,5.2c.08,18.32,0,36.63,0,55a5.87,5.87,0,0,1,0,1.19,1.38,1.38,0,0,1-1.53,1.26,1.36,1.36,0,0,1-1.4-1.39c0-.33,0-.66,0-1Z"/><path d="M99.72,39.46c0,3.58,0,7.16,0,10.74A7.34,7.34,0,0,1,94.89,57a7.44,7.44,0,0,1-8.12-1.94,7.24,7.24,0,0,1-2-5.06c0-7.09,0-14.19,0-21.29a7.47,7.47,0,0,1,14.8-1.47,10.1,10.1,0,0,1,.14,2c0,3.42,0,6.83,0,10.25Zm-12-1.66h9c0-3,0-6,0-9a4.48,4.48,0,1,0-9-.07c0,2.09,0,4.18,0,6.26Zm8.93,3.13H87.86c0,3.34-.16,6.62.06,9.88a4.19,4.19,0,0,0,4.48,3.67,4.29,4.29,0,0,0,4.25-3.75C96.8,47.5,96.69,44.25,96.69,40.93Z"/><path d="M81.76,61c0,3.61,0,7.22,0,10.84A7.44,7.44,0,0,1,67.5,74.58a8.34,8.34,0,0,1-.67-3.07q-.08-10.61,0-21.19a7.47,7.47,0,0,1,14.81-1.49,9.8,9.8,0,0,1,.13,1.88c0,3.41,0,6.83,0,10.25Zm-3-1.59c0-3,0-6,0-8.92a4.49,4.49,0,1,0-9,0c0,2.38,0,4.77,0,7.15v1.72Zm0,3.11H69.86c0,3.28-.14,6.49,0,9.69a4.44,4.44,0,0,0,8.78.11C78.84,69,78.73,65.79,78.73,62.48Z"/><path d="M36.05,18.24c-3.29,0-6.58,0-9.87,0a4.48,4.48,0,1,1,0-8.95H45.89a4.48,4.48,0,1,1,0,9C42.63,18.25,39.34,18.24,36.05,18.24Zm0-3h9.67c1.26,0,1.93-.53,1.94-1.49s-.67-1.5-1.92-1.5H26.2c-1.16,0-1.8.58-1.78,1.53s.65,1.45,1.77,1.45Z"/><path d="M22.88,58.75a8.62,8.62,0,1,1,8.65-8.59A8.6,8.6,0,0,1,22.88,58.75Zm0-14.25a5.64,5.64,0,1,0,5.68,5.58A5.6,5.6,0,0,0,22.86,44.5Z"/><path d="M31.53,29.88A8.64,8.64,0,1,1,23,21.23,8.68,8.68,0,0,1,31.53,29.88Zm-14.28,0a5.65,5.65,0,1,0,5.65-5.62A5.66,5.66,0,0,0,17.25,29.84Z"/><path d="M57.82,70.41a8.64,8.64,0,1,1-8.6-8.64A8.6,8.6,0,0,1,57.82,70.41ZM49.13,76a5.63,5.63,0,1,0-5.6-5.65A5.59,5.59,0,0,0,49.13,76Z"/><path d="M31.53,90.66A8.64,8.64,0,1,1,23,82,8.65,8.65,0,0,1,31.53,90.66Zm-14.28,0A5.65,5.65,0,1,0,22.86,85,5.63,5.63,0,0,0,17.25,90.66Z"/><path d="M49.21,41.52a8.62,8.62,0,1,1-8.67,8.56A8.59,8.59,0,0,1,49.21,41.52Zm0,3a5.64,5.64,0,1,0,5.6,5.64A5.62,5.62,0,0,0,49.22,44.5Z"/><path d="M31.53,70.39a8.64,8.64,0,1,1-8.62-8.62A8.61,8.61,0,0,1,31.53,70.39ZM22.88,76a5.63,5.63,0,1,0-5.63-5.61A5.62,5.62,0,0,0,22.88,76Z"/><path d="M57.82,29.85a8.64,8.64,0,1,1-8.61-8.62A8.67,8.67,0,0,1,57.82,29.85Zm-3,0a5.65,5.65,0,1,0-5.63,5.65A5.64,5.64,0,0,0,54.82,29.88Z"/><path d="M57.82,90.68A8.64,8.64,0,1,1,49.16,82,8.64,8.64,0,0,1,57.82,90.68Zm-3-.06a5.65,5.65,0,1,0-5.58,5.68A5.64,5.64,0,0,0,54.82,90.62Z"/></svg>