<svg id="Calque_1" data-name="Calque 1" xmlns="http://www.w3.org/2000/svg" viewBox="0 0 109 109"><title>urologie</title><path d="M52.05,105.36a4.16,4.16,0,0,1-2.87-3.58c-.14-.89-.45-1.74-.61-2.62a3.18,3.18,0,0,0-2.23-2.53A23.09,23.09,0,0,1,31.46,79.86c-1-4-1.1-8,1-11.81a2.75,2.75,0,0,0,.17-1.16c.1-2.38,0-4.79.3-7.15A13.11,13.11,0,0,1,38,51.13c2.36-1.88,4.8-3.67,7.18-5.53a11.15,11.15,0,0,0,4.49-9c0-2.73,0-5.45,0-8.17a3.3,3.3,0,0,0-3.55-3.54c-.53,0-1.07,0-1.59,0-.27,0-.7.12-.74.26A1.21,1.21,0,0,0,44,26a10.67,10.67,0,0,1,2.24,6.17A10.91,10.91,0,0,1,33.89,43.31a32.69,32.69,0,0,1-3.8-.74,1.46,1.46,0,0,1-1.22-1.85,1.5,1.5,0,0,1,2.05-1,12.64,12.64,0,0,0,5.79.54A7.69,7.69,0,0,0,42.85,35a7.26,7.26,0,0,0-1.66-7.66,2.36,2.36,0,0,1-.55-2.25,12.14,12.14,0,0,0,0-3.61,2.15,2.15,0,0,1,.4-1.92c2.47-2.88,3-6.05,1.39-9a8.25,8.25,0,0,0-8.47-4.18,14.74,14.74,0,0,0-13.38,15A52.32,52.32,0,0,0,21,29a13,13,0,0,0,4,7.11,3.07,3.07,0,0,1,.73.93,1.36,1.36,0,0,1-.56,1.74,1.44,1.44,0,0,1-1.91-.22,16,16,0,0,1-4.58-7,22.68,22.68,0,0,1-1-5.64c-.12-3.21-.31-6.44.58-9.6A17.8,17.8,0,0,1,35.44,3.39a10.44,10.44,0,0,1,9.69,6.06c1.94,3.87,1.44,7.64-1,11.17a1.24,1.24,0,0,0-.27.95c.09.2.59.27.91.3a26.88,26.88,0,0,1,3.26.25,5.8,5.8,0,0,1,4.59,5.06A97.06,97.06,0,0,1,52.41,39a12.64,12.64,0,0,1-5.08,8.73c-2.36,1.88-4.81,3.66-7.18,5.52-3.51,2.75-4.83,6.41-4.47,10.8,5.8-3.49,12.14-4.67,18.71-4.67s12.93,1.15,18.8,4.67a13.63,13.63,0,0,0-.33-4.63,11.51,11.51,0,0,0-4.28-6.3c-2-1.54-4-3.13-6.1-4.65a14.58,14.58,0,0,1-6.31-12.63c0-2.43,0-4.85,0-7.27a6.3,6.3,0,0,1,6.67-6.69,11.09,11.09,0,0,0,1.29,0c.33,0,.82-.1.91-.3a1.22,1.22,0,0,0-.26-.95,11.15,11.15,0,0,1-2-4.8,10.79,10.79,0,0,1,8.7-12.24,16.17,16.17,0,0,1,10,1.63,1.47,1.47,0,0,1,.82,2,1.48,1.48,0,0,1-2.1.7,14.4,14.4,0,0,0-6.53-1.52,7.64,7.64,0,0,0-7.33,4.73,7.29,7.29,0,0,0,1.45,8.31,2.37,2.37,0,0,1,.52,2.26,10.61,10.61,0,0,0,0,3.51,2.21,2.21,0,0,1-.48,2.08c-2.26,2.51-2.89,5.38-1.45,8.47a7.64,7.64,0,0,0,7.49,4.65,14.77,14.77,0,0,0,14.51-14.3,67.31,67.31,0,0,0-.14-7,13.57,13.57,0,0,0-2.84-6.91,2,2,0,0,1-.5-1.33,2.08,2.08,0,0,1,1-1.26,1.37,1.37,0,0,1,1.74.55,16.05,16.05,0,0,1,3.56,8.31c.41,4,.64,8-.41,11.87a17.79,17.79,0,0,1-16.82,13,10.49,10.49,0,0,1-10-5.85c-2.06-3.94-1.62-7.8,1-11.43a1.33,1.33,0,0,0,.21-1c0-.15-.54-.23-.84-.25a17,17,0,0,0-1.89,0,3.06,3.06,0,0,0-3,2.65c-.06,3.71-.13,7.44.18,11.14a9.63,9.63,0,0,0,4,6.75c2.24,1.76,4.52,3.48,6.79,5.21a14.44,14.44,0,0,1,6,12c0,.5,0,1,0,1.49a13.78,13.78,0,0,0,1,5.88c1.56,3.72.89,7.57-.19,11.32A29.17,29.17,0,0,1,75.56,85a1.46,1.46,0,0,1-2,.9,1.48,1.48,0,0,1-.65-2.18A21.42,21.42,0,0,0,75.07,75a10.12,10.12,0,0,0-6.27-10,37.25,37.25,0,0,0-20.42-2.23,51.1,51.1,0,0,0-7.86,2.07,10,10,0,0,0-6.73,10A20.54,20.54,0,0,0,47.43,93.85a5.89,5.89,0,0,1,4,4.63,29,29,0,0,0,.8,3.18,1.2,1.2,0,0,0,.86.68c.85.1,1.72,0,2.58,0a.82.82,0,0,0,.95-.77c.23-1.07.53-2.13.76-3.2A5.66,5.66,0,0,1,61.23,94a21.19,21.19,0,0,0,7.57-4.66,1.51,1.51,0,1,1,2,2.17,22.39,22.39,0,0,1-8.2,5.13,3.25,3.25,0,0,0-2.36,2.67c-.15.85-.45,1.67-.58,2.52a4.15,4.15,0,0,1-2.86,3.58Z"/></svg>